# xmcd CD database file
#
# Track frame offsets:
#	150
#	16344
#	39948
#	62434
#	83152
#	103003
#	131538
#	143519
#	161498
#
# Disc length: 2428 seconds
#
# Revision: 1
# Processed by: cddbd v1.5.1PL0 Copyright (c) Steve Scherf et al.
# Submitted via: CDex 1.51
#
DISCID=64097a09
DTITLE=Palinka - Tu sors !
DYEAR=1900
DGENRE=Jazz
TTITLE0=Les Grands Boulevards
TTITLE1=Lache la foule
TTITLE2=Israël
TTITLE3=Tu sors
TTITLE4=Donnez moi un verre
TTITLE5=Larevedere princess
TTITLE6=Regards noirs
TTITLE7=Minor swing
TTITLE8=Un malin plaisir
EXTD=
EXTT0=
EXTT1=
EXTT2=
EXTT3=
EXTT4=
EXTT5=
EXTT6=
EXTT7=
EXTT8=
PLAYORDER=
